<svg id="visual" viewBox="0 0 500 500" width="500" height="500" xmlns="http://www.w3.org/2000/svg" xmlns:xlink="http://www.w3.org/1999/xlink" version="1.1"><rect x="0" y="0" width="500" height="500" fill="#7fcbd7"></rect><g transform="translate(500 -0.2002660020552014)"><path d="M149 -258.1C194.1 -232.1 232.1 -194.1 258.1 -149C284.1 -104 298.1 -52 298.1 0C298.1 52 284.1 104 258.1 149C232.1 194.1 194.1 232.1 149 258.2C104 284.3 52 298.4 0 298.5C-52.1 298.6 -104.2 284.6 -149.2 258.5C-194.2 232.4 -232.2 194.2 -258.2 149.1C-284.1 104 -298.1 52 -298.1 0C-298.1 -52 -284.1 -104 -258.1 -149C-232.1 -194.1 -194.1 -232.1 -149 -258.1C-104 -284.1 -52 -298.1 0 -298.1C52 -298.1 104 -284.1 149 -258.1" fill="#857ebb"></path></g></svg>